<svg id="图层_1" data-name="图层 1" xmlns="http://www.w3.org/2000/svg" viewBox="0 0 695 160"><defs><style>.cls-1{fill:#fff;}</style></defs><path class="cls-1" d="M183.86,32.69a87.53,87.53,0,0,1,18.52,1.81,32,32,0,0,1,14.31,6.88q5.94,5.09,9.16,14.18t3.21,23.53q0,13.51-3.21,22.4a34.43,34.43,0,0,1-9.16,14.24,34,34,0,0,1-14.31,7.56,72.64,72.64,0,0,1-18.52,2.2H152V32.69Zm-1.07,75.42A41.41,41.41,0,0,0,194,106.77a16.78,16.78,0,0,0,7.89-4.68,20.74,20.74,0,0,0,4.68-9,53.88,53.88,0,0,0,1.54-14,55.23,55.23,0,0,0-1.6-14.64,20.92,20.92,0,0,0-4.75-9A16.24,16.24,0,0,0,193.82,51a45.3,45.3,0,0,0-11-1.2H172.36v58.3Z"/><path class="cls-1" d="M288.7,52l-.54,17.25h-1.87a30.11,30.11,0,0,0-6.62.73,18,18,0,0,0-5.95,2.48A16.42,16.42,0,0,0,269,77.09a18.79,18.79,0,0,0-2.81,7.35v41.05H246.84V53.28h19.39v13A24.12,24.12,0,0,1,270.17,59a19.88,19.88,0,0,1,5-4.41,16.66,16.66,0,0,1,5.75-2.14,37.22,37.22,0,0,1,6.28-.53Z"/><path class="cls-1" d="M325.2,52.08a64.58,64.58,0,0,1,15.31,1.54,26.69,26.69,0,0,1,10,4.48A16.68,16.68,0,0,1,356,65.38a28.17,28.17,0,0,1,1.67,10.1v50H340.31l-1.87-8.42q-2.28,4-8.16,6.89t-14.84,2.87q-12.17,0-18.45-5.41t-6.29-16.65q0-12.57,7.56-17.66T320.39,82h17.92V80.16a21.25,21.25,0,0,0-.61-5.48A6.87,6.87,0,0,0,335.37,71a11.63,11.63,0,0,0-4.69-2.07,35.89,35.89,0,0,0-7.75-.67c-2.59,0-5.17.11-7.76.33s-5.13.56-7.62,1V53.15c2.76-.36,5.75-.62,9-.8S322.62,52.08,325.2,52.08ZM320.39,112a25.2,25.2,0,0,0,11.36-2.34,13.94,13.94,0,0,0,6.56-6.09V95.14h-15q-7.21,0-10.36,1.74c-2.1,1.16-3.15,3.56-3.15,7.22q0,4.28,2.48,6.08C314,111.39,316.64,112,320.39,112Z"/><path class="cls-1" d="M368,53.28h20.6L400,105.43h.81l12.7-52.15h21.93l12.7,52.15h.81l11.36-52.15h20.33L460.8,125.49H436.46l-11.9-49.34h-.8l-11.9,49.34H387.52Z"/><path class="cls-1" d="M534.48,52a36.28,36.28,0,0,1,11.3,1.53,17.23,17.23,0,0,1,7.42,4.62,17.88,17.88,0,0,1,4,7.55,40.88,40.88,0,0,1,1.2,10.5v49.34H539V81.23a31.91,31.91,0,0,0-.53-6.22,9.88,9.88,0,0,0-1.81-4.21,7.14,7.14,0,0,0-3.54-2.34,19.55,19.55,0,0,0-5.88-.74,20.42,20.42,0,0,0-9.9,2.14q-3.87,2.15-5.48,7.76v47.87H492.49V53.28h19.39V62a17.83,17.83,0,0,1,8.82-7.55A35.39,35.39,0,0,1,534.48,52Z"/><path class="cls-1" d="M586.9,43.25a36,36,0,0,1-5.35-.33,6.45,6.45,0,0,1-3.35-1.4,5.75,5.75,0,0,1-1.67-3.08,25.33,25.33,0,0,1-.47-5.48,24.58,24.58,0,0,1,.47-5.35,5.75,5.75,0,0,1,1.67-3.08,6.1,6.1,0,0,1,3.35-1.33,53.73,53.73,0,0,1,10.76,0,6,6,0,0,1,3.28,1.33,5.75,5.75,0,0,1,1.67,3.08,24.58,24.58,0,0,1,.47,5.35,25.33,25.33,0,0,1-.47,5.48,5.75,5.75,0,0,1-1.67,3.08,6.35,6.35,0,0,1-3.28,1.4A35.75,35.75,0,0,1,586.9,43.25Zm-9.77,10h19.39v72.21H577.13Z"/><path class="cls-1" d="M632.23,88.59,608.69,53.28h22.73l14.05,23.54h.8l14-23.54h22.46l-23.4,35.17,24.74,37h-23l-15-24.87h-.8l-15.24,24.87H607.22Z"/><path class="cls-1" d="M76.84,26H32.09L25.37,66.85c5.35-2.07,13.13-7.27,24.73-2l.39,28.47s-34-.39-37.22,40.56c0,.14-.25.18-.59.17l-.08.46H76.84a54.25,54.25,0,0,0,54.25-54.25h0A54.25,54.25,0,0,0,76.84,26Zm26.44,60c-3.53-2.08-13.43-2.85-22.9,5.28S55.13,94.2,55.13,94.2L55,64.58C71.27,43.06,106.81,88.1,103.28,86Z"/></svg>