<svg xmlns="http://www.w3.org/2000/svg" viewBox="0.614 1.000 65.386 69.000"><style>.wipe{animation:draw 1.5s cubic-bezier(.12,.5,.2,1) infinite}.ink{animation:hold 1.5s linear infinite}@keyframes draw{0%{transform:translateX(0px)}56.7%,100%{transform:translateX(64.26px)}}@keyframes hold{0%,56.7%{opacity:1}80.0%,100%{opacity:0}}@media(prefers-reduced-motion:reduce){.wipe{animation:none;transform:translateX(64.26px)}.ink{animation:none;opacity:1}}</style><defs><mask id="mw" maskUnits="userSpaceOnUse" x="-40" y="-40" width="160" height="160"><g transform="rotate(-20 33.3 35.5)"><rect class="wipe" x="-60.34" y="-90" width="64.26" height="260" fill="#fff"/></g></mask></defs><g class="ink" mask="url(#mw)"><path fill="#D8452F" d="M5 19 C-1 31 5 44 15 48 C23 51 29 50 34 44 C39 34 46 20 57 3 L51 45 C56 46 60 48 64 51 C55 52 48 51 43 49 C45 56 44 62 43 68 C40 60 37 56 32 54 C22 52 10 46 6 37 C2 30 2 23 5 19 Z"/></g></svg>
